#!OML:ASF E:\emotionWalksFemale\Project 1\Capture day 1\Session 1\Female1.ASF
:FULLY-SPECIFIED
:DEGREES
1426
root 6.99762 15.2023 42.1602 3.33223 -168.768 -359.157
lowerback 9.03021 3.27053 -1.72301
upperback -3.41226 3.99923 -1.51491
thorax -8.70157 1.97261 -1.29484
lowerneck -1.27214 17.6968 7.96559
upperneck 6.56795 23.3231 -0.545247
head 3.40019 11.7331 -0.448673
rclavicle -4.7758e-014 -7.95139e-016
rhumerus -39.0418 4.16508 -83.9814
rradius 37.5112
rwrist 16.0514
rhand -8.80513 -56.5798
rfingers 7.12502
rthumb 17.134 634.156
lclavicle -4.7758e-014 -7.95139e-016
lhumerus -45.1553 10.3649 43.8319
lradius 36.474
lwrist -4.55897
lhand -13.3604 -29.5503
lfingers 7.12502
lthumb 12.7458 0.0407177
rfemur -20.3702 3.00297 26.4179
rtibia 43.1492
rfoot -22.5278 -13.6447
rtoes -20.4183
lfemur -14.2006 -24.8317 -19.9337
ltibia 28.2979
lfoot -27.2223 10.7164
ltoes -15.4356
1427
root 6.96593 15.2143 42.177 3.42452 -169.841 -358.903
lowerback 8.77803 3.31725 -1.29627
upperback -3.36465 4.13195 -1.44805
thorax -8.47531 2.02031 -1.46362
lowerneck -1.162 17.9137 8.30929
upperneck 6.61182 23.6526 -1.09855
head 3.5392 11.8903 -0.625688
rclavicle 4.31363e-014 1.98785e-014
rhumerus -39.2745 3.37475 -83.4995
rradius 37.0348
rwrist 16.4959
rhand -8.49491 -56.3097
rfingers 7.12502
rthumb 17.4326 634.452
lclavicle 4.31363e-014 1.98785e-014
lhumerus -44.3563 10.7892 44.093
lradius 36.8702
lwrist -4.04185
lhand -13.8703 -29.524
lfingers 7.12502
lthumb 12.2542 0.0969501
rfemur -20.4754 2.47632 26.6937
rtibia 43.2758
rfoot -22.8208 -14.7888
rtoes -17.0828
lfemur -14.1241 -24.8021 -19.7729
ltibia 28.1151
lfoot -27.701 11.591
ltoes -14.3582
1428
root 6.93651 15.2218 42.1923 3.56725 -170.851 -358.751
lowerback 8.9257 3.3629 -1.07751
upperback -3.60087 4.22226 -1.34453
thorax -8.8083 2.05155 -1.512
lowerneck -1.01447 18.1467 8.37874
upperneck 6.92223 23.9746 -1.14909
head 3.65635 12.0513 -0.618506
rclavicle -1.80832e-014 -4.13472e-014
rhumerus -40.0058 2.89318 -83.0849
rradius 36.5261
rwrist 16.9955
rhand -8.01456 -56.9157
rfingers 7.12502
rthumb 17.8948 633.888
lclavicle -1.80832e-014 -4.13472e-014
lhumerus -43.9454 10.6209 44.5832
lradius 37.4738
lwrist -3.07641
lhand -14.3627 -29.3606
lfingers 7.12502
lthumb 11.7794 0.28818
rfemur -20.588 2.10109 26.8142
rtibia 43.3468
rfoot -23.1152 -16.107
rtoes -15.3265
lfemur -14.0912 -24.8105 -19.705
ltibia 27.9125
lfoot -27.8217 12.6824
ltoes -17.1016
1429
root 6.9073 15.2281 42.2076 3.70846 -171.829 -358.877
lowerback 8.59736 3.43338 -1.24285
upperback -3.5254 4.31651 -1.21098
thorax -8.55715 2.11487 -1.2682
lowerneck -0.855831 18.354 8.38041
upperneck 6.92149 24.2921 -1.45815
head 3.69057 12.202 -0.697222
rclavicle 8.03898e-014 1.19271e-014
rhumerus -40.3638 2.79887 -82.612
rradius 36.0361
rwrist 17.0369
rhand -7.74492 -56.4179
rfingers 7.12502
rthumb 18.1543 634.409
lclavicle 8.03898e-014 1.19271e-014
lhumerus -43.2017 10.7119 45.4638
lradius 38.0828
lwrist -1.81115
lhand -14.8274 -29.27
lfingers 7.12502
lthumb 11.3312 0.403915
rfemur -20.6175 1.75748 26.5748
rtibia 43.3508
rfoot -23.497 -16.9634
rtoes -13.4118
lfemur -13.9652 -24.9432 -19.9748
ltibia 27.7066
lfoot -27.9591 13.3387
ltoes -17.2915
1430
root 6.8808 15.2357 42.2193 3.79853 -172.74 -358.969
lowerback 8.45092 3.49353 -1.21116
upperback -3.53323 4.40052 -1.23384
thorax -8.47549 2.15382 -1.31312
lowerneck -0.696729 18.5195 8.59731
upperneck 6.92668 24.5361 -1.6808
head 3.742 12.3225 -0.7798
rclavicle 2.88362e-014 -1.59028e-015
rhumerus -40.8205 2.46297 -82.213
rradius 35.5358
rwrist 17.3485
rhand -7.43152 -55.5957
rfingers 7.12502
rthumb 18.4558 635.26
lclavicle 2.88362e-014 -1.59028e-015
lhumerus -42.4552 10.5442 46.1377
lradius 38.6966
lwrist -0.390016
lhand -15.6993 -30.0512
lfingers 7.12502
lthumb 10.4902 -0.332972
rfemur -20.5461 1.48083 26.3178
rtibia 43.2785
rfoot -23.799 -17.6601
rtoes -11.4556
lfemur -13.7696 -25.0465 -20.231
ltibia 27.5172
lfoot -28.4387 13.5716
ltoes -16.1394
1431
root 6.85645 15.241 42.2276 3.85245 -173.638 -358.895
lowerback 8.25184 3.56192 -1.01185
upperback -3.51309 4.51899 -1.24616
thorax -8.31973 2.20253 -1.43945
lowerneck -0.546767 18.6755 8.9201
upperneck 6.95204 24.7646 -1.92409
head 3.82168 12.437 -0.877782
rclavicle -6.51144e-014 6.75868e-015
rhumerus -41.2105 1.80027 -81.6764
rradius 34.9556
rwrist 18.4162
rhand -6.96431 -55.4434
rfingers 7.12502
rthumb 18.9051 635.455
lclavicle -6.51144e-014 6.75868e-015
lhumerus -41.7351 10.3593 46.7643
lradius 39.4256
lwrist 0.94104
lhand -16.6475 -30.9235
lfingers 7.12502
lthumb 9.57546 -1.16114
rfemur -20.3819 1.23913 26.2159
rtibia 43.1363
rfoot -23.9757 -18.3236
rtoes -9.53486
lfemur -13.5748 -24.9909 -20.3073
ltibia 27.3757
lfoot -29.0343 13.7437
ltoes -14.5784
1432
root 6.8341 15.2418 42.2365 3.87536 -174.58 -358.733
lowerback 7.54204 3.70585 -0.974185
upperback -3.16289 4.75584 -1.03494
thorax -7.54398 2.33555 -1.20404
lowerneck -0.535939 18.7878 9.20653
upperneck 6.88046 24.9692 -2.61521
head 3.95826 12.5269 -1.09034
rclavicle -4.56087e-014 -6.36111e-015
rhumerus -41.1828 1.30609 -80.8978
rradius 34.4462
rwrist 19.3025
rhand -6.49337 -55.2893
rfingers 7.12502
rthumb 19.358 635.654
lclavicle -4.56087e-014 -6.36111e-015
lhumerus -40.6755 10.5734 47.8772
lradius 40.2021
lwrist 2.14937
lhand -16.8358 -30.5749
lfingers 7.12502
lthumb 9.39378 -0.804254
rfemur -20.1304 1.24511 26.164
rtibia 42.8926
rfoot -24.2761 -18.7257
rtoes -7.31134
lfemur -13.4254 -24.9038 -20.2897
ltibia 27.3405
lfoot -29.5162 14.0746
ltoes -12.669
1433
root 6.81381 15.2363 42.2449 3.80403 -175.47 -358.677
lowerback 8.38356 3.80427 -0.519736
upperback -3.61417 4.89721 -1.27633
thorax -8.45635 2.35725 -1.81659
lowerneck -0.498482 18.9193 9.70158
upperneck 7.45039 25.1064 -2.38808
head 4.20543 12.6093 -1.03349
rclavicle 1.51138e-014 9.14409e-015
rhumerus -42.3334 0.57062 -80.739
rradius 33.9572
rwrist 20.2615
rhand -5.99698 -55.1472
rfingers 7.12502
rthumb 19.8353 635.845
lclavicle 1.51138e-014 9.14409e-015
lhumerus -40.3154 9.39213 48.3831
lradius 41.2148
lwrist 3.72164
lhand -16.7864 -30.2707
lfingers 7.12502
lthumb 9.44148 -0.502134
rfemur -19.7493 1.42449 25.9541
rtibia 42.5705
rfoot -24.3114 -19.2464
rtoes -5.73813
lfemur -13.2332 -24.9334 -20.4378
ltibia 27.4066
lfoot -30.1487 14.3689
ltoes -12.3966
1434
root 6.79487 15.2338 42.2568 3.84531 -176.186 -358.654
lowerback 8.34882 3.85381 -0.464694
upperback -3.5978 4.97864 -1.1997
thorax -8.41892 2.3977 -1.77534
lowerneck -0.422845 19.0817 9.80728
upperneck 7.45431 25.3492 -2.61186
head 4.26139 12.7262 -1.09324
rclavicle -4.72673e-014 -2.78299e-015
rhumerus -42.5339 0.168542 -80.1226
rradius 33.1295
rwrist 21.1583
rhand -5.93857 -54.2079
rfingers 7.12502
rthumb 19.8914 636.79
lclavicle -4.72673e-014 -2.78299e-015
lhumerus -39.6279 8.99514 49.4163
lradius 42.2017
lwrist 5.08576
lhand -16.9648 -30.6181
lfingers 7.12502
lthumb 9.26929 -0.841899
rfemur -19.4849 1.57256 25.6917
rtibia 42.1875
rfoot -24.0386 -19.9483
rtoes -4.4164
lfemur -13.2544 -24.9903 -20.5313
ltibia 27.5272
lfoot -30.8482 14.1199
ltoes -12.8673
1435
root 6.77804 15.239 42.2684 4.07834 -176.807 -358.533
lowerback 8.22835 3.85013 -0.285924
upperback -3.70675 5.00038 -1.12036
thorax -8.45768 2.39977 -1.79014
lowerneck -0.218393 19.2312 9.8896
upperneck 7.39948 25.5779 -2.76199
head 4.25658 12.8392 -1.1488
rclavicle 7.66315e-014 9.14409e-015
rhumerus -42.8582 -0.0283414 -79.6347
rradius 32.4183
rwrist 21.9098
rhand -5.99177 -53.2075
rfingers 7.12502
rthumb 19.8403 637.785
lclavicle 7.66315e-014 9.14409e-015
lhumerus -39.0654 8.61077 50.3492
lradius 43.2163
lwrist 6.35318
lhand -16.6824 -30.8898
lfingers 7.12502
lthumb 9.54174 -1.12588
rfemur -19.4194 1.67652 25.5202
rtibia 41.7367
rfoot -24.0465 -20.465
rtoes -2.89978
lfemur -13.5614 -24.9046 -20.3837
ltibia 27.6776
lfoot -31.1628 13.7062
ltoes -13.2045
1436
root 6.76091 15.2407 42.2729 4.24296 -177.499 -358.474
lowerback 8.09821 3.87086 -0.0873707
upperback -3.79243 5.05121 -1.10274
thorax -8.45746 2.4132 -1.88292
lowerneck -0.0962004 19.3667 9.95702
upperneck 7.42144 25.773 -2.82
head 4.27556 12.9365 -1.16568
rclavicle 1.16817e-014 -1.35174e-014
rhumerus -43.3492 -0.144922 -79.2792
rradius 32.0332
rwrist 22.7014
rhand -5.65489 -53.3199
rfingers 7.12502
rthumb 20.1641 637.707
lclavicle 1.16817e-014 -1.35174e-014
lhumerus -38.491 8.19925 51.1572
lradius 44.1355
lwrist 7.31585
lhand -16.2532 -31.1311
lfingers 7.12502
lthumb 9.95589 -1.38651
rfemur -19.2538 1.99302 25.234
rtibia 41.2486
rfoot -24.1622 -20.8869
rtoes -1.86009
lfemur -13.7407 -24.8648 -20.3701
ltibia 27.8164
lfoot -31.2912 13.5267
ltoes -12.8209
1437
root 6.74334 15.2388 42.279 4.32836 -178.216 -358.319
lowerback 8.03775 3.90484 0.207826
upperback -3.84266 5.1367 -1.03629
thorax -8.45416 2.44056 -1.98653
lowerneck -0.0438251 19.5259 9.90387
upperneck 7.77674 26.0122 -3.00182
head 3.9824 13.0407 -1.0515
rclavicle 4.2133e-014 -8.74653e-015
rhumerus -43.7327 -0.387246 -78.8366
rradius 31.5418
rwrist 23.6544
rhand -5.52998 -53.2405
rfingers 7.12502
rthumb 20.2841 637.799
lclavicle 4.2133e-014 -8.74653e-015
lhumerus -37.9215 7.73494 52.0837
lradius 45.0634
lwrist 8.04931
lhand -16.3444 -31.3448
lfingers 7.12502
lthumb 9.86791 -1.59601
rfemur -19.0066 2.62515 25.0116
rtibia 40.7401
rfoot -24.2783 -21.3982
rtoes -0.455566
lfemur -13.8347 -24.9441 -20.2896
ltibia 27.9507
lfoot -31.5684 13.3019
ltoes -11.0898
1438
root 6.72928 15.2377 42.2892 4.53079 -179.033 -358.201
lowerback 7.8379 3.9819 0.350839
upperback -3.87485 5.26406 -0.932345
thorax -8.36583 2.49952 -1.96017
lowerneck -0.062053 19.6797 9.82494
upperneck 7.85446 26.2322 -3.10857
head 4.02695 13.1435 -1.04492
rclavicle 3.8645e-014 -3.57812e-015
rhumerus -43.9792 -0.615099 -78.2918
rradius 30.9185
rwrist 24.7231
rhand -4.70724 -53.0378
rfingers 7.12502
rthumb 21.0747 638.087
lclavicle 3.8645e-014 -3.57812e-015
lhumerus -37.2718 7.39334 53.1379
lradius 45.9842
lwrist 8.59831
lhand -16.5834 -31.6055
lfingers 7.12502
lthumb 9.63727 -1.84591
rfemur -18.9175 3.43252 24.7208
rtibia 40.2139
rfoot -24.4977 -21.9499
rtoes 1.30778
lfemur -14.0527 -24.9518 -20.1953
ltibia 28.0553
lfoot -32.0423 13.1003
ltoes -12.6065
1439
root 6.71999 15.239 42.2983 4.91737 -180.198 -358.153
lowerback 7.43358 4.1472 0.301855
upperback -3.94098 5.58811 -0.873882
thorax -8.20413 2.70878 -1.89373
lowerneck 0.0623293 19.7571 9.88524
upperneck 7.66969 26.3763 -3.44644
head 4.01222 13.208 -1.1458
rclavicle 5.88682e-014 8.34896e-015
rhumerus -44.3907 -0.830731 -77.7633
rradius 30.6558
rwrist 25.5976
rhand -3.8765 -53.225
rfingers 7.12502
rthumb 21.8726 637.991
lclavicle 5.88682e-014 8.34896e-015
lhumerus -36.4587 6.84688 54.2462
lradius 46.8019
lwrist 9.20672
lhand -16.4454 -31.9245
lfingers 7.12502
lthumb 9.77043 -2.17119
rfemur -19.0562 4.49226 24.3037
rtibia 39.6713
rfoot -24.4577 -22.506
rtoes 2.21862
lfemur -14.3586 -24.8071 -20.1363
ltibia 28.0784
lfoot -32.5651 13.2196
ltoes -14.4099
